umbra-10.ufo
<glyph name="percent" format="1">
  <advance width="641"/>
  <unicode hex="0025"/>
  <outline>
    <contour>
      <point x="-266" y="39" type="line"/>
      <point x="44" y="539" type="line"/>
      <point x="174" y="539" type="line"/>
      <point x="-136" y="39" type="line"/>
    </contour>
    <contour>
      <point x="-216" y="347" type="line"/>
      <point x="-321" y="452" type="line"/>
      <point x="-216" y="558" type="line"/>
      <point x="-110" y="452" type="line"/>
    </contour>
    <contour>
      <point x="124" y="11" type="line"/>
      <point x="19" y="116" type="line"/>
      <point x="124" y="222" type="line"/>
      <point x="230" y="116" type="line"/>
    </contour>
  </outline>
</glyph>
<glyph name="parenleft" format="1">
  <advance width="232"/>
  <unicode hex="0028"/>
  <outline>
    <contour>
      <point x="-224" y="-1" type="line"/>
      <point x="-299" y="84"/>
      <point x="-336" y="189"/>
      <point x="-336" y="294" type="curve" smooth="yes"/>
      <point x="-336" y="399"/>
      <point x="-299" y="504"/>
      <point x="-224" y="589" type="curve"/>
      <point x="-134" y="589" type="line"/>
      <point x="-184" y="514"/>
      <point x="-208" y="404"/>
      <point x="-208" y="294" type="curve" smooth="yes"/>
      <point x="-208" y="184"/>
      <point x="-184" y="74"/>
      <point x="-134" y="-1" type="curve"/>
    </contour>
  </outline>
</glyph>
<glyph name="parenright" format="1">
  <advance width="232"/>
  <unicode hex="0029"/>
  <outline>
    <contour>
      <point x="-276" y="590" type="line"/>
      <point x="-201" y="505"/>
      <point x="-164" y="400"/>
      <point x="-164" y="295" type="curve" smooth="yes"/>
      <point x="-164" y="190"/>
      <point x="-201" y="85"/>
      <point x="-276" y="0" type="curve"/>
      <point x="-366" y="0" type="line"/>
      <point x="-316" y="75"/>
      <point x="-292" y="185"/>
      <point x="-292" y="295" type="curve" smooth="yes"/>
      <point x="-292" y="405"/>
      <point x="-316" y="515"/>
      <point x="-366" y="590" type="curve"/>
    </contour>
  </outline>
</glyph>
<glyph name="slash" format="1">
  <advance width="460"/>
  <unicode hex="002F"/>
  <outline>
    <contour>
      <point x="-356" y="39" type="line"/>
      <point x="-46" y="539" type="line"/>
      <point x="84" y="539" type="line"/>
      <point x="-226" y="39" type="line"/>
    </contour>
  </outline>
</glyph>
<glyph name="three" format="1">
  <advance width="464"/>
  <unicode hex="0033"/>
  <outline>
    <contour>
      <point x="-209" y="248" type="line"/>
      <point x="-209" y="343" type="line"/>
      <point x="-159" y="343" type="line" smooth="yes"/>
      <point x="-111" y="343"/>
      <point x="-102" y="368"/>
      <point x="-102" y="396" type="curve" smooth="yes"/>
      <point x="-102" y="419"/>
      <point x="-116" y="434"/>
      <point x="-144" y="434" type="curve" smooth="yes"/>
      <point x="-192" y="434"/>
      <point x="-240" y="395"/>
      <point x="-280" y="357" type="curve"/>
      <point x="-320" y="467" type="line"/>
      <point x="-270" y="524"/>
      <point x="-210" y="554"/>
      <point x="-143" y="554" type="curve" smooth="yes"/>
      <point x="-36" y="554"/>
      <point x="49" y="509"/>
      <point x="49" y="412" type="curve" smooth="yes"/>
      <point x="49" y="357"/>
      <point x="23" y="324"/>
      <point x="-22" y="306" type="curve"/>
      <point x="32" y="286"/>
      <point x="63" y="247"/>
      <point x="63" y="191" type="curve" smooth="yes"/>
      <point x="63" y="64"/>
      <point x="-62" y="24"/>
      <point x="-139" y="24" type="curve" smooth="yes"/>
      <point x="-236" y="24"/>
      <point x="-306" y="59"/>
      <point x="-346" y="106" type="curve"/>
      <point x="-306" y="221" type="line"/>
      <point x="-266" y="183"/>
      <point x="-207" y="149"/>
      <point x="-159" y="149" type="curve" smooth="yes"/>
      <point x="-111" y="149"/>
      <point x="-82" y="158"/>
      <point x="-82" y="199" type="curve" smooth="yes"/>
      <point x="-82" y="237"/>
      <point x="-111" y="248"/>
      <point x="-159" y="248" type="curve" smooth="yes"/>
    </contour>
  </outline>
</glyph>
<glyph name="four" format="1">
  <advance width="490"/>
  <unicode hex="0034"/>
  <outline>
    <contour>
      <point x="-111" y="134" type="line"/>
      <point x="-188" y="134"/>
      <point x="-264" y="134"/>
      <point x="-341" y="134" type="curve"/>
      <point x="-361" y="204" type="line"/>
      <point x="-71" y="539" type="line"/>
      <point x="29" y="539" type="line"/>
      <point x="29" y="439"/>
      <point x="29" y="339"/>
      <point x="29" y="239" type="curve"/>
      <point x="99" y="239" type="line"/>
      <point x="99" y="134" type="line"/>
      <point x="29" y="134" type="line"/>
      <point x="29" y="39" type="line"/>
      <point x="-111" y="39" type="line"/>
    </contour>
    <contour>
      <point x="-100" y="239" type="line"/>
      <point x="-100" y="371" type="line"/>
      <point x="-214" y="239" type="line"/>
    </contour>
  </outline>
</glyph>
<glyph name="six" format="1">
  <advance width="474"/>
  <unicode hex="0036"/>
  <outline>
    <contour>
      <point x="-191" y="201" type="curve" smooth="yes"/>
      <point x="-191" y="173"/>
      <point x="-172" y="144"/>
      <point x="-124" y="144" type="curve" smooth="yes"/>
      <point x="-76" y="144"/>
      <point x="-57" y="173"/>
      <point x="-57" y="201" type="curve" smooth="yes"/>
      <point x="-57" y="229"/>
      <point x="-76" y="258"/>
      <point x="-124" y="258" type="curve" smooth="yes"/>
      <point x="-172" y="258"/>
      <point x="-191" y="229"/>
    </contour>
    <contour>
      <point x="73" y="201" type="curve" smooth="yes"/>
      <point x="73" y="94"/>
      <point x="-2" y="29"/>
      <point x="-119" y="29" type="curve" smooth="yes"/>
      <point x="-276" y="29"/>
      <point x="-331" y="154"/>
      <point x="-331" y="271" type="curve" smooth="yes"/>
      <point x="-331" y="398"/>
      <point x="-255" y="549"/>
      <point x="-118" y="549" type="curve" smooth="yes"/>
      <point x="-41" y="549"/>
      <point x="29" y="514"/>
      <point x="69" y="467" type="curve"/>
      <point x="28" y="361" type="line"/>
      <point x="-12" y="399"/>
      <point x="-49" y="429"/>
      <point x="-97" y="429" type="curve" smooth="yes"/>
      <point x="-165" y="429"/>
      <point x="-194" y="370"/>
      <point x="-200" y="302" type="curve"/>
      <point x="-170" y="339"/>
      <point x="-124" y="353"/>
      <point x="-89" y="353" type="curve" smooth="yes"/>
      <point x="-22" y="353"/>
      <point x="73" y="308"/>
    </contour>
  </outline>
</glyph>
<glyph name="seven" format="1">
  <advance width="455"/>
  <unicode hex="0037"/>
  <outline>
    <contour>
      <point x="69" y="539" type="line"/>
      <point x="68" y="399"/>
      <point x="-109" y="346"/>
      <point x="-109" y="36" type="curve"/>
      <point x="-244" y="38" type="line"/>
      <point x="-244" y="257"/>
      <point x="-157" y="337"/>
      <point x="-98" y="419" type="curve"/>
      <point x="-341" y="419" type="line"/>
      <point x="-341" y="539" type="line"/>
    </contour>
  </outline>
</glyph>
<glyph name="F" format="1">
  <advance width="450"/>
  <unicode hex="0046"/>
  <outline>
    <contour>
      <point x="-321" y="39" type="line"/>
      <point x="-321" y="539" type="line"/>
      <point x="-194" y="539"/>
      <point x="-68" y="539"/>
      <point x="59" y="539" type="curve"/>
      <point x="59" y="419" type="line"/>
      <point x="-181" y="419" type="line"/>
      <point x="-181" y="329" type="line"/>
      <point x="29" y="329" type="line"/>
      <point x="29" y="204" type="line"/>
      <point x="-181" y="204" type="line"/>
      <point x="-181" y="39" type="line"/>
    </contour>
  </outline>
</glyph>
<glyph name="G" format="1">
  <advance width="555"/>
  <unicode hex="0047"/>
  <outline>
    <contour>
      <point x="-191" y="289" type="curve" smooth="yes"/>
      <point x="-191" y="196"/>
      <point x="-118" y="144"/>
      <point x="-61" y="144" type="curve" smooth="yes"/>
      <point x="-27" y="144"/>
      <point x="1" y="151"/>
      <point x="24" y="163" type="curve"/>
      <point x="24" y="234" type="line"/>
      <point x="-86" y="234" type="line"/>
      <point x="-86" y="329" type="line"/>
      <point x="154" y="329" type="line"/>
      <point x="154" y="113" type="line"/>
      <point x="102" y="61"/>
      <point x="20" y="19"/>
      <point x="-61" y="19" type="curve" smooth="yes"/>
      <point x="-216" y="19"/>
      <point x="-336" y="140"/>
      <point x="-336" y="289" type="curve" smooth="yes"/>
      <point x="-336" y="438"/>
      <point x="-226" y="559"/>
      <point x="-51" y="559" type="curve" smooth="yes"/>
      <point x="30" y="559"/>
      <point x="77" y="537"/>
      <point x="109" y="505" type="curve"/>
      <point x="69" y="378" type="line"/>
      <point x="44" y="411"/>
      <point x="0" y="434"/>
      <point x="-61" y="434" type="curve" smooth="yes"/>
      <point x="-118" y="434"/>
      <point x="-191" y="382"/>
    </contour>
  </outline>
</glyph>
<glyph name="I" format="1">
  <advance width="230"/>
  <unicode hex="0049"/>
  <outline>
    <contour>
      <point x="-321" y="39" type="line"/>
      <point x="-321" y="539" type="line"/>
      <point x="-181" y="539" type="line"/>
      <point x="-181" y="39" type="line"/>
    </contour>
  </outline>
</glyph>
<glyph name="J" format="1">
  <advance width="319"/>
  <unicode hex="004A"/>
  <outline>
    <contour>
      <point x="-232" y="49" type="curve" smooth="yes"/>
      <point x="-232" y="539" type="line"/>
      <point x="-92" y="539" type="line"/>
      <point x="-92" y="9" type="line" smooth="yes"/>
      <point x="-92" y="-88"/>
      <point x="-182" y="-143"/>
      <point x="-259" y="-143" type="curve" smooth="yes"/>
      <point x="-326" y="-143"/>
      <point x="-366" y="-123"/>
      <point x="-416" y="-76" type="curve"/>
      <point x="-366" y="29" type="line"/>
      <point x="-326" y="-9"/>
      <point x="-297" y="-23"/>
      <point x="-279" y="-23" type="curve" smooth="yes"/>
      <point x="-251" y="-23"/>
      <point x="-232" y="-9"/>
    </contour>
  </outline>
</glyph>
<glyph name="W" format="1">
  <advance width="880"/>
  <unicode hex="0057"/>
  <outline>
    <contour>
      <point x="494" y="539" type="line"/>
      <point x="304" y="39" type="line"/>
      <point x="144" y="39" type="line"/>
      <point x="76" y="234" type="line"/>
      <point x="4" y="39" type="line"/>
      <point x="-156" y="39" type="line"/>
      <point x="-346" y="539" type="line"/>
      <point x="-196" y="539" type="line"/>
      <point x="-72" y="174" type="line"/>
      <point x="15" y="392" type="line"/>
      <point x="-46" y="539" type="line"/>
      <point x="114" y="539" type="line"/>
      <point x="226" y="191" type="line"/>
      <point x="344" y="539" type="line"/>
    </contour>
  </outline>
</glyph>
<glyph name="a" format="1">
  <advance width="434"/>
  <unicode hex="0061"/>
  <outline>
    <contour>
      <point x="-107" y="237" type="curve"/>
      <point x="-107" y="251" type="line" smooth="yes"/>
      <point x="-107" y="309"/>
      <point x="-116" y="329"/>
      <point x="-164" y="329" type="curve" smooth="yes"/>
      <point x="-182" y="329"/>
      <point x="-231" y="319"/>
      <point x="-271" y="291" type="curve"/>
      <point x="-321" y="361" type="line"/>
      <point x="-261" y="398"/>
      <point x="-191" y="434"/>
      <point x="-114" y="434" type="curve" smooth="yes"/>
      <point x="-27" y="434"/>
      <point x="28" y="378"/>
      <point x="28" y="281" type="curve" smooth="yes"/>
      <point x="28" y="39" type="line"/>
      <point x="-107" y="39" type="line"/>
      <point x="-107" y="79" type="line"/>
      <point x="-133" y="51"/>
      <point x="-172" y="29"/>
      <point x="-224" y="29" type="curve" smooth="yes"/>
      <point x="-281" y="29"/>
      <point x="-346" y="54"/>
      <point x="-346" y="151" type="curve" smooth="yes"/>
      <point x="-346" y="228"/>
      <point x="-286" y="264"/>
      <point x="-209" y="264" type="curve" smooth="yes"/>
      <point x="-167" y="264"/>
      <point x="-133" y="252"/>
    </contour>
    <contour>
      <point x="-107" y="172" type="line"/>
      <point x="-117" y="180"/>
      <point x="-130" y="190"/>
      <point x="-159" y="190" type="curve" smooth="yes"/>
      <point x="-187" y="190"/>
      <point x="-201" y="168"/>
      <point x="-201" y="150" type="curve" smooth="yes"/>
      <point x="-201" y="132"/>
      <point x="-192" y="105"/>
      <point x="-164" y="105" type="curve" smooth="yes"/>
      <point x="-140" y="105"/>
      <point x="-120" y="117"/>
      <point x="-107" y="132" type="curve"/>
    </contour>
  </outline>
</glyph>
<glyph name="b" format="1">
  <advance width="499"/>
  <unicode hex="0062"/>
  <outline>
    <contour>
      <point x="-326" y="39" type="line"/>
      <point x="-326" y="569" type="line"/>
      <point x="-191" y="569" type="line"/>
      <point x="-191" y="385" type="line"/>
      <point x="-160" y="416"/>
      <point x="-119" y="434"/>
      <point x="-74" y="434" type="curve" smooth="yes"/>
      <point x="33" y="434"/>
      <point x="98" y="348"/>
      <point x="98" y="231" type="curve" smooth="yes"/>
      <point x="98" y="114"/>
      <point x="33" y="29"/>
      <point x="-74" y="29" type="curve" smooth="yes"/>
      <point x="-119" y="29"/>
      <point x="-160" y="49"/>
      <point x="-191" y="81" type="curve"/>
      <point x="-191" y="39" type="line"/>
    </contour>
    <contour>
      <point x="-191" y="172" type="line"/>
      <point x="-172" y="148"/>
      <point x="-143" y="134"/>
      <point x="-114" y="134" type="curve" smooth="yes"/>
      <point x="-66" y="134"/>
      <point x="-37" y="173"/>
      <point x="-37" y="231" type="curve" smooth="yes"/>
      <point x="-37" y="289"/>
      <point x="-66" y="329"/>
      <point x="-114" y="329" type="curve" smooth="yes"/>
      <point x="-143" y="329"/>
      <point x="-172" y="314"/>
      <point x="-191" y="290" type="curve"/>
    </contour>
  </outline>
</glyph>
<glyph name="g" format="1">
  <advance width="489"/>
  <unicode hex="0067"/>
  <outline>
    <contour>
      <point x="-52" y="97" type="line"/>
      <point x="-83" y="67"/>
      <point x="-124" y="49"/>
      <point x="-169" y="49" type="curve" smooth="yes"/>
      <point x="-276" y="49"/>
      <point x="-331" y="134"/>
      <point x="-331" y="241" type="curve" smooth="yes"/>
      <point x="-331" y="348"/>
      <point x="-276" y="434"/>
      <point x="-169" y="434" type="curve" smooth="yes"/>
      <point x="-124" y="434"/>
      <point x="-83" y="418"/>
      <point x="-52" y="389" type="curve"/>
      <point x="-52" y="424" type="line"/>
      <point x="83" y="424" type="line"/>
      <point x="83" y="-1" type="line" smooth="yes"/>
      <point x="83" y="-98"/>
      <point x="-12" y="-153"/>
      <point x="-99" y="-153" type="curve" smooth="yes"/>
      <point x="-176" y="-153"/>
      <point x="-246" y="-128"/>
      <point x="-306" y="-91" type="curve"/>
      <point x="-266" y="9" type="line"/>
      <point x="-216" y="-29"/>
      <point x="-157" y="-43"/>
      <point x="-119" y="-43" type="curve" smooth="yes"/>
      <point x="-71" y="-43"/>
      <point x="-52" y="-29"/>
      <point x="-52" y="29" type="curve" smooth="yes"/>
    </contour>
    <contour>
      <point x="-52" y="297" type="line"/>
      <point x="-71" y="318"/>
      <point x="-100" y="329"/>
      <point x="-129" y="329" type="curve" smooth="yes"/>
      <point x="-177" y="329"/>
      <point x="-196" y="289"/>
      <point x="-196" y="241" type="curve" smooth="yes"/>
      <point x="-196" y="193"/>
      <point x="-177" y="154"/>
      <point x="-129" y="154" type="curve" smooth="yes"/>
      <point x="-100" y="154"/>
      <point x="-71" y="165"/>
      <point x="-52" y="186" type="curve"/>
    </contour>
  </outline>
</glyph>
<glyph name="j" format="1">
  <advance width="277"/>
  <unicode hex="006A"/>
  <outline>
    <contour>
      <point x="-292" y="424" type="line"/>
      <point x="-157" y="424" type="line"/>
      <point x="-157" y="-57" type="line" smooth="yes"/>
      <point x="-157" y="-154"/>
      <point x="-242" y="-209"/>
      <point x="-319" y="-209" type="curve" smooth="yes"/>
      <point x="-386" y="-209"/>
      <point x="-416" y="-194"/>
      <point x="-466" y="-147" type="curve"/>
      <point x="-426" y="-47" type="line"/>
      <point x="-386" y="-85"/>
      <point x="-357" y="-99"/>
      <point x="-339" y="-99" type="curve" smooth="yes"/>
      <point x="-311" y="-99"/>
      <point x="-292" y="-85"/>
      <point x="-292" y="-27" type="curve" smooth="yes"/>
    </contour>
    <contour>
      <point x="-225" y="481" type="line"/>
      <point x="-320" y="576" type="line"/>
      <point x="-225" y="672" type="line"/>
      <point x="-129" y="576" type="line"/>
    </contour>
  </outline>
</glyph>
<glyph name="k" format="1">
  <advance width="485"/>
  <unicode hex="006B"/>
  <outline>
    <contour>
      <point x="-326" y="39" type="line"/>
      <point x="-326" y="569" type="line"/>
      <point x="-191" y="569" type="line"/>
      <point x="-191" y="289" type="line"/>
      <point x="-56" y="424" type="line"/>
      <point x="109" y="424" type="line"/>
      <point x="-51" y="264" type="line"/>
      <point x="119" y="39" type="line"/>
      <point x="-46" y="39" type="line"/>
      <point x="-191" y="231" type="line"/>
      <point x="-191" y="39" type="line"/>
    </contour>
  </outline>
</glyph>
<glyph name="r" format="1">
  <advance width="374"/>
  <unicode hex="0072"/>
  <outline>
    <contour>
      <point x="8" y="361" type="curve"/>
      <point x="-67" y="261" type="line"/>
      <point x="-87" y="289"/>
      <point x="-96" y="309"/>
      <point x="-134" y="309" type="curve" smooth="yes"/>
      <point x="-153" y="309"/>
      <point x="-174" y="297"/>
      <point x="-191" y="279" type="curve"/>
      <point x="-191" y="39" type="line"/>
      <point x="-326" y="39" type="line"/>
      <point x="-326" y="424" type="line"/>
      <point x="-211" y="424" type="line"/>
      <point x="-202" y="349" type="line"/>
      <point x="-173" y="397"/>
      <point x="-131" y="429"/>
      <point x="-94" y="429" type="curve" smooth="yes"/>
      <point x="-37" y="429"/>
      <point x="-12" y="388"/>
    </contour>
  </outline>
</glyph>
<glyph name="quotedblright" format="1">
  <advance width="430"/>
  <unicode hex="201D"/>
  <outline>
    <contour>
      <point x="-111" y="279" type="line"/>
      <point x="-111" y="539" type="line"/>
      <point x="19" y="539" type="line"/>
      <point x="19" y="399" type="line"/>
    </contour>
    <contour>
      <point x="-321" y="279" type="line"/>
      <point x="-321" y="539" type="line"/>
      <point x="-191" y="539" type="line"/>
      <point x="-191" y="399" type="line"/>
    </contour>
  </outline>
</glyph>
